PathFileType	4	(X/Y/Z)	F:\MotionCapture\20160217\3\Generated_files\EMG_test04-Dynamic.trc
DataRate	CameraRate	NumFrames	NumMarkers	Units	OrigDataRate	OrigDataStartFrame	OrigNumFrames
120.00	120.00	       5	39	mm	120.00	1	       713
Frame#	Time	Top.Head			Front.Head			Rear.Head			R.Shoulder			R.Offset			R.Elbow			R.Wrist			L.Shoulder			L.Elbow			L.Wrist			R.ASIS			L.ASIS			V.Sacral			R.Thigh			R.Knee			R.Shank			R.Ankle			R.Heel			R.Toe			L.Thigh			L.Knee			L.Shank			L.Ankle			L.Heel			L.Toe			R1			R2			R3			R4			R5			R6			R7			L1			L2			L3			L4			L5			L6			L7			V_Mid_ASIS			V_Pelvis_Origin			V_R.Hip_JC			V_L.Hip_JC			V_R.Knee_JC			V_L.Knee_JC			V_R.Ankle_JC			V_L.Ankle_JC			V_Mid_Hip			V_Mid_Shoulder			V_R.Hand			V_L.Hand			V_R.Toe_Offset_Static			V_L.Toe_Offset_Static			V_R.Toe_Offset			V_L.Toe_Offset			
		X1	Y1	Z1	X2	Y2	Z2	X3	Y3	Z3	X4	Y4	Z4	X5	Y5	Z5	X6	Y6	Z6	X7	Y7	Z7	X8	Y8	Z8	X9	Y9	Z9	X10	Y10	Z10	X11	Y11	Z11	X12	Y12	Z12	X13	Y13	Z13	X14	Y14	Z14	X15	Y15	Z15	X16	Y16	Z16	X17	Y17	Z17	X18	Y18	Z18	X19	Y19	Z19	X20	Y20	Z20	X21	Y21	Z21	X22	Y22	Z22	X23	Y23	Z23	X24	Y24	Z24	X25	Y25	Z25	X26	Y26	Z26	X27	Y27	Z27	X28	Y28	Z28	X29	Y29	Z29	X30	Y30	Z30	X31	Y31	Z31	X32	Y32	Z32	X33	Y33	Z33	X34	Y34	Z34	X35	Y35	Z35	X36	Y36	Z36	X37	Y37	Z37	X38	Y38	Z38	X39	Y39	Z39	

1	0.000																																																																																																																																																																						3213.17383	89.43726	1626.39026	3340.51489	-196.69443	878.96759	3519.58472	-114.64784	65.09441	3308.69043	108.10560	1726.88403	3221.50732	223.74097	50.70834	3438.81030	-76.15865	46.42671	3365.01709	-77.08234	471.78979	3531.19482	-1.85449	90.67988	3307.55029	423.39108	871.36707	3368.91772	282.41904	44.90236	3263.66675	209.97421	59.22491	3596.43262	-73.30666	129.87051	3480.28149	220.96750	51.16320	3438.06934	186.83784	51.42550	3606.03662	15.17516	114.63656	3366.34253	183.50702	65.58147	3462.91333	-56.51260	54.50832	3446.74243	262.56851	53.13855	3481.08960	-92.86147	56.55204	3420.91870	428.65533	1108.07336	3265.20361	246.10953	53.05194	3577.44287	-94.69542	85.43803	3301.67676	293.36240	46.09416	3332.97241	267.49594	480.29495	3636.58594	-49.47714	121.79638	3423.06885	136.96886	1676.37292	3406.15747	276.50360	80.81808	3326.74292	261.94034	960.35492	3279.75195	221.10379	591.88489	3356.10962	199.67206	243.23773	3412.51245	-84.45802	1427.98242	3545.39917	72.91845	1285.54333	3559.52954	133.12726	953.61646	3347.04224	-25.41150	947.33905	3274.26196	-15.10152	632.30011	3652.93115	-4.71982	130.01352	3374.47656	320.65561	1429.73669	3403.99292	-13.69714	327.64325	
2	0.008																																																																																																																																																																						3210.92432	94.84385	1627.41284	3516.74121	-111.92363	67.68874	3306.41553	112.28264	1727.81091	3221.65674	222.66356	50.59629	3435.78125	-75.66474	47.06961	3356.22852	-75.13972	472.47125	3527.15845	0.18293	93.49412	3344.56079	-22.83497	948.26306	3303.21729	423.17163	870.83740	3368.91772	282.45224	44.90739	3263.31470	209.67586	58.97618	3632.36572	-46.91762	126.95230	3480.21924	220.94276	51.26618	3438.05103	186.91171	51.72600	3366.28198	183.50031	65.63010	3460.03979	-55.67723	55.80060	3445.17554	260.27359	51.00604	3336.47290	-194.28151	880.10199	3478.57129	-90.52007	59.15406	3265.66772	245.52199	52.74695	3267.80981	-12.81160	634.81604	3301.58398	293.79416	45.96998	3406.31445	276.89676	81.12483	3325.19800	264.28790	959.58362	3592.12305	-70.95840	134.20132	3574.13599	-93.49045	90.18897	3332.81152	268.36646	479.41815	3421.21924	141.47650	1676.46082	3279.46069	222.42102	591.51080	3409.19116	-81.05315	1428.60522	3355.83911	200.51044	243.41731	3542.63794	75.03273	1286.37793	3557.62183	134.54401	953.82806	3644.29541	-5.70413	136.67839	3601.31152	16.79508	118.23157	3418.38086	430.66705	1106.69141	3266.62988	260.47290	-12.31593	3372.24487	326.02744	1428.77539	3395.83789	-12.44464	330.12497	
3	0.017																																																																																																																																																																						3209.58374	100.08750	1628.37280	3342.04248	-20.49838	948.92566	3513.00854	-110.87946	72.53182	3304.44775	116.31072	1728.41003	3221.88770	225.03691	51.88694	3432.17896	-75.40132	47.18885	3347.89087	-73.67736	473.53253	3522.20239	2.24182	95.60287	3299.69312	423.33328	870.63586	3368.88916	282.36908	44.74364	3264.15356	209.84880	58.60532	3642.71240	2.07271	139.14984	3480.11719	220.91367	51.23444	3438.06006	186.98117	52.00402	3260.61963	-11.87706	636.70270	3366.21313	183.49236	65.68474	3456.81958	-54.29255	57.89050	3445.22681	260.34189	50.99179	3333.00928	-191.82140	882.06860	3475.29053	-88.85207	62.00428	3278.26660	224.35390	591.12866	3265.51563	245.53178	52.45094	3419.38525	144.47803	1676.38525	3301.60010	293.47757	45.60789	3405.25806	-77.89323	1429.98401	3539.84619	77.66853	1287.00183	3627.63354	-43.81355	131.81596	3406.33691	276.96945	81.05231	3587.67969	-67.90276	137.95064	3570.18848	-89.99783	94.41374	3332.80615	270.53708	480.06195	3355.55054	201.67021	243.73550	3596.12988	19.67025	121.65691	3416.11182	433.01672	1105.63867	3370.09180	327.55701	1428.38049	3316.53662	-128.06163	811.16833	3266.50024	260.74847	-12.51878	3388.66235	-9.72401	331.52560	
4	0.025																																																																																																																																																																						3206.45874	104.09048	1629.23242	3339.15967	-18.91641	949.20215	3508.40991	-108.08517	75.10760	3221.55225	222.99416	49.76008	3428.05859	-73.39830	49.47758	3339.93018	-72.06168	474.79706	3301.36865	121.51064	1728.62488	3295.96436	423.46698	870.84332	3368.84570	282.37000	44.56511	3263.64209	209.68478	58.83254	3637.03882	4.82186	143.19934	3479.95020	220.78233	51.08633	3437.95093	187.11710	52.22480	3256.33667	-8.01822	639.52411	3366.00244	183.47447	65.86437	3451.73633	-53.35010	60.50166	3329.28223	-189.50063	884.01624	3471.50952	-88.91061	66.57487	3277.78564	226.32510	590.73682	3265.37402	245.49739	52.21719	3565.38599	-87.01777	97.04234	3301.46948	293.84714	45.48077	3622.01172	-40.17066	135.07291	3406.30640	277.24948	80.97092	3446.70264	262.66003	53.06773	3582.14307	-64.42170	141.06531	3332.61133	271.54443	479.84634	3590.92480	24.35101	125.90943	3517.32861	7.04036	100.07072	3413.70215	435.65649	1105.35547	3322.12256	269.48175	959.68896	3417.43872	149.93832	1676.69482	3402.07983	-74.21462	1430.88135	3536.98901	80.03597	1287.46338	3553.37622	136.33549	954.23413	3173.28271	177.49773	-27.10721	3367.93408	331.54623	1428.21838	3266.61938	261.22321	-12.52143	
5	0.033																																																																																																																																																																						3203.94946	108.95412	1630.18433	3336.37988	-15.68111	949.67108	3510.62720	-70.29684	51.60808	3299.31152	125.42638	1729.19238	3221.44238	223.16559	49.45604	3250.75439	-6.15654	642.23041	3291.94897	423.68747	870.98816	3368.81909	282.38797	44.31646	3263.65137	210.04472	59.01952	3627.55835	7.67886	146.79337	3479.55054	220.70378	50.79048	3437.94043	187.25575	52.52273	3365.97266	183.58661	66.14843	3445.93018	-51.29959	62.47797	3332.38794	-70.61827	476.41980	3325.58862	-187.79980	885.18378	3277.76465	228.37808	591.00220	3265.27563	245.81342	51.81461	3613.97656	-38.07455	138.91045	3559.21948	-84.68693	100.35583	3301.65088	294.42197	45.22343	3576.29321	-61.09809	143.58324	3422.35620	-71.63753	51.48326	3406.45435	277.56732	80.88697	3446.74414	262.71432	53.02689	3465.44531	-86.85001	67.89619	3332.67603	272.91553	479.99545	3410.36865	436.73605	1103.89990	3365.68359	334.67361	1427.38525	3584.13281	28.40885	127.97960	3320.52441	272.02887	959.72266	3415.27612	152.98851	1676.72363	3398.39673	-71.07301	1432.21851	3173.13379	177.64484	-27.16615	3534.13818	82.04687	1288.35425	3551.36914	137.93924	954.71918	3266.70020	261.38367	-12.63377	3474.64941	-46.98057	15.64451	
